<?xml version="1.0" standalone="no"?>
<!DOCTYPE svg PUBLIC "-//W3C//DTD SVG 20010904//EN"
 "http://www.w3.org/TR/2001/REC-SVG-20010904/DTD/svg10.dtd">
<svg version="1.0" xmlns="http://www.w3.org/2000/svg"
 width="1634.000000pt" height="299.000000pt" viewBox="0 0 1634.000000 299.000000"
 preserveAspectRatio="xMidYMid meet">

<g transform="translate(0.000000,299.000000) scale(0.100000,-0.100000)"
fill="#000000" stroke="none">
<path d="M11850 2904 c-102 -7 -252 -18 -335 -25 -82 -6 -199 -13 -260 -16
-154 -6 -158 -7 -150 -43 5 -24 3 -30 -9 -30 -9 0 -21 11 -26 25 -11 28 -11
28 -100 25 -78 -2 -91 -8 -115 -54 -23 -42 -27 -44 -83 -38 -33 3 -42 8 -40
21 2 9 11 15 21 13 11 -2 17 4 17 18 0 16 -6 20 -29 20 -17 0 -33 -5 -37 -11
-4 -7 -20 -8 -43 -4 -58 11 -95 10 -306 -3 -244 -15 -393 -30 -416 -43 -12 -6
-20 -5 -25 2 -5 8 -29 9 -78 5 -74 -8 -282 -24 -421 -32 -55 -4 -82 -10 -88
-20 -9 -15 -43 -19 -51 -5 -9 14 -113 12 -332 -4 -264 -20 -328 -26 -334 -32
-9 -9 25 -21 79 -28 31 -4 64 -14 73 -22 10 -9 28 -16 40 -17 27 -1 32 -34 8
-46 -8 -4 -30 -15 -48 -24 -27 -14 -36 -15 -48 -5 -8 7 -32 15 -52 18 -34 6
-37 9 -40 44 -2 24 -8 37 -18 37 -8 0 -19 12 -24 26 -10 25 -13 26 -58 20 -26
-4 -92 -9 -147 -12 -131 -7 -142 -10 -158 -40 l-13 -25 -12 25 c-8 18 -19 26
-37 26 -24 0 -29 -7 -26 -42 1 -9 -3 -19 -9 -23 -15 -9 -40 13 -40 36 0 20
-25 25 -47 11 -9 -6 -4 -17 18 -41 33 -37 27 -51 -21 -51 -15 0 -31 -5 -38
-12 -19 -19 -26 0 -11 30 8 15 18 30 22 33 15 11 -5 39 -27 39 -14 0 -27 -9
-34 -24 -6 -14 -21 -26 -34 -28 -19 -2 -23 -10 -26 -45 -3 -41 -2 -43 25 -43
35 0 58 -14 49 -29 -5 -7 1 -11 14 -11 19 0 21 4 16 26 -6 24 -5 26 18 22 19
-4 27 0 31 13 4 13 16 19 35 19 15 0 30 6 33 13 3 7 21 14 41 15 33 2 36 0 36
-23 0 -22 4 -25 34 -25 32 0 53 -13 55 -35 2 -11 19 -11 141 -2 46 4 89 12 94
17 13 13 59 13 72 0 7 -7 49 -7 130 0 65 6 256 20 424 31 168 12 355 25 415
30 61 5 148 11 195 13 252 13 489 28 595 37 204 17 520 38 1175 79 91 6 199
15 240 20 41 5 148 12 237 16 l161 7 64 -31 c34 -16 76 -42 91 -57 21 -20 34
-25 53 -21 17 5 24 2 24 -9 0 -8 -7 -15 -15 -15 -13 0 -14 -4 -1 -34 23 -56
45 -194 50 -321 5 -142 9 -157 41 -149 18 4 25 1 30 -16 8 -26 -13 -56 -29
-40 -17 17 -26 11 -26 -19 0 -21 6 -32 20 -36 13 -4 17 -11 13 -18 -21 -32
-28 -87 -21 -171 32 -402 40 -531 41 -615 2 -92 0 -98 -34 -161 -40 -72 -105
-130 -171 -149 -47 -14 -226 -30 -698 -61 -458 -29 -646 -42 -824 -55 -109 -8
-214 -15 -233 -15 -26 0 -36 -5 -40 -20 -6 -23 -33 -27 -33 -5 0 20 -68 20
-97 0 -15 -11 -24 -12 -28 -4 -8 12 -216 5 -359 -11 -43 -6 -82 -7 -86 -5 -5
3 -50 1 -102 -5 -51 -5 -163 -15 -248 -20 -85 -5 -220 -14 -300 -20 -80 -5
-212 -14 -295 -20 -158 -10 -481 -32 -725 -49 -80 -6 -226 -15 -324 -21 -98
-6 -183 -13 -189 -17 -6 -3 -40 -5 -76 -4 -36 1 -147 -5 -246 -13 -185 -16
-522 -40 -795 -56 -199 -12 -442 -29 -500 -35 -25 -2 -97 -7 -160 -10 -63 -3
-131 -8 -150 -10 -19 -3 -114 -10 -210 -16 -311 -18 -519 -32 -935 -63 -115
-9 -286 -21 -380 -26 -278 -17 -449 -29 -660 -45 -110 -8 -226 -15 -257 -15
-80 0 -156 31 -211 86 -85 85 -96 129 -117 484 -13 204 -25 373 -40 555 -18
221 -28 460 -21 505 15 92 99 193 189 224 23 9 77 18 120 21 42 3 127 10 187
15 150 13 363 27 655 45 135 8 304 20 375 25 72 5 189 14 260 20 72 5 207 14
300 20 94 7 265 18 380 27 116 8 235 16 265 17 73 3 239 14 375 26 61 5 198
14 305 20 107 6 247 15 310 21 63 5 183 14 265 19 83 6 209 14 280 20 72 5
213 14 315 20 249 14 274 17 304 45 31 29 32 42 6 75 -26 34 -25 40 8 40 35 0
41 6 35 30 -8 29 -32 32 -163 19 l-121 -12 21 -22 c24 -25 26 -43 5 -51 -10
-4 -29 9 -53 36 l-38 43 -99 -11 c-55 -6 -183 -16 -285 -22 -102 -6 -205 -13
-230 -16 -25 -3 -57 -7 -72 -8 -15 -2 -34 -9 -43 -16 -13 -11 -23 -11 -54 0
-38 12 -101 10 -491 -20 -141 -11 -328 -24 -665 -45 -126 -8 -288 -19 -360
-25 -219 -17 -304 -23 -745 -50 -204 -13 -543 -37 -710 -50 -69 -5 -199 -14
-290 -20 -255 -15 -311 -20 -359 -31 -173 -39 -330 -193 -364 -359 -16 -77
-20 -240 -8 -365 15 -161 28 -348 46 -660 25 -430 36 -497 92 -606 101 -196
292 -283 568 -259 61 5 225 17 365 25 434 27 541 34 670 45 126 10 462 33 750
50 85 5 211 14 280 19 239 19 324 25 885 61 205 13 418 28 570 40 66 5 235 16
375 25 234 14 429 28 555 41 28 2 84 7 125 9 113 6 386 24 555 36 83 6 222 15
310 20 88 5 219 14 290 19 72 6 198 14 280 20 83 5 220 14 305 19 85 6 227 16
315 21 88 6 199 15 246 20 47 6 113 10 148 10 60 0 62 1 72 30 16 45 69 53 69
10 0 -10 3 -21 8 -24 7 -4 245 9 607 34 83 6 211 15 285 20 448 29 500 36 500
60 0 5 -9 10 -20 10 -11 0 -20 7 -20 15 0 20 7 19 38 -6 17 -13 34 -18 49 -14
13 3 32 1 43 -5 15 -8 21 -6 30 10 13 24 36 21 32 -4 -6 -36 143 -12 241 39
75 40 124 82 173 151 66 93 80 141 91 306 5 80 3 88 -18 109 -18 18 -19 21 -4
15 17 -6 18 0 12 96 -4 57 -10 156 -13 221 l-7 119 -29 -6 c-21 -4 -28 -2 -28
9 0 8 -11 25 -25 37 -13 11 -22 25 -19 30 8 12 62 10 70 -3 24 -39 25 101 2
279 -10 83 -20 104 -41 83 -15 -15 -47 -14 -47 2 0 19 20 36 36 30 23 -8 44 5
37 22 -4 12 -13 15 -29 11 -19 -5 -24 -2 -24 13 0 11 4 22 9 25 5 3 9 17 9 32
0 14 4 29 10 33 16 9 13 169 -5 231 -8 30 -25 75 -38 100 -49 97 -183 214
-258 227 -36 5 -37 5 -37 -25 0 -26 -5 -31 -30 -37 -36 -8 -50 0 -50 26 0 14
7 19 29 19 40 0 48 17 16 32 -21 10 -31 9 -55 -5 -27 -17 -29 -16 -35 2 -6 18
-35 32 -65 30 -8 -1 -98 -7 -200 -15z m-530 -72 c0 -12 -23 -32 -37 -32 -11 0
-11 4 -1 20 13 20 38 28 38 12z m320 -52 c0 -5 -4 -10 -10 -10 -5 0 -10 5 -10
10 0 6 5 10 10 10 6 0 10 -4 10 -10z m-1710 -84 c0 -2 -7 -6 -15 -10 -8 -3
-15 -1 -15 4 0 6 7 10 15 10 8 0 15 -2 15 -4z m-1527 -120 c6 -15 -1 -26 -15
-26 -4 0 -8 9 -8 20 0 23 15 27 23 6z m-1683 -102 c0 -8 -5 -12 -10 -9 -6 4
-8 11 -5 16 9 14 15 11 15 -7z m5800 -484 c0 -5 -4 -10 -10 -10 -5 0 -10 5
-10 10 0 6 5 10 10 10 6 0 10 -4 10 -10z m-130 -1186 c0 -17 -5 -24 -20 -24
-22 0 -25 12 -9 41 13 25 29 16 29 -17z m-845 -54 c7 -21 0 -40 -16 -40 -5 0
-9 14 -9 30 0 34 15 40 25 10z m-1135 -100 c11 -11 26 -20 33 -20 16 0 37 -20
37 -36 0 -21 -32 -25 -70 -8 -29 13 -39 24 -42 46 -7 44 9 51 42 18z m-2376
-176 c25 -10 19 -34 -8 -34 -27 0 -41 14 -31 30 7 12 17 12 39 4z"/>
<path d="M8096 2494 c-8 -21 -9 -21 37 -29 l38 -7 -24 26 c-28 30 -42 33 -51
10z"/>
<path d="M7835 2450 c-3 -5 -1 -10 4 -10 6 0 11 5 11 10 0 6 -2 10 -4 10 -3 0
-8 -4 -11 -10z"/>
<path d="M11285 2413 c-100 -30 -208 -144 -250 -263 -70 -197 -75 -502 -14
-756 28 -119 133 -283 217 -342 103 -71 118 -77 222 -77 87 0 100 3 150 30
141 77 230 235 250 444 22 228 -30 550 -118 729 -54 111 -145 202 -231 230
-75 26 -154 27 -226 5z m168 -243 c63 -50 113 -151 141 -288 20 -91 38 -262
37 -344 -1 -180 -78 -328 -169 -328 -72 0 -164 101 -208 228 -45 134 -55 421
-18 562 21 82 36 111 77 153 42 42 100 49 140 17z"/>
<path d="M10788 2391 c-47 -3 -88 -8 -91 -11 -8 -9 -35 -104 -57 -200 -12 -52
-35 -149 -52 -215 -17 -66 -34 -138 -39 -160 -9 -47 -32 -147 -53 -225 -8 -30
-25 -98 -36 -150 -23 -105 -46 -164 -59 -156 -5 3 -13 18 -19 33 -6 16 -50
127 -97 248 -47 121 -94 240 -105 265 -10 25 -39 97 -63 160 -102 262 -130
330 -141 340 -8 6 -53 7 -114 3 -98 -6 -102 -7 -102 -29 0 -13 21 -72 46 -131
60 -138 67 -157 94 -223 12 -30 39 -95 60 -145 21 -49 61 -146 90 -215 28 -69
58 -138 65 -155 7 -16 23 -55 35 -85 11 -30 27 -68 35 -85 7 -16 23 -55 35
-85 11 -30 29 -73 39 -95 10 -22 29 -68 41 -102 12 -35 29 -68 36 -74 9 -8 42
-9 103 -4 86 7 90 8 98 34 15 45 11 56 -20 53 -15 -2 -27 1 -27 7 0 5 14 11
31 13 34 3 39 10 58 70 9 29 9 41 -1 58 -11 18 -10 23 9 38 17 13 30 47 52
132 16 63 46 178 66 255 20 77 52 199 70 270 59 227 114 438 131 499 13 49 13
60 2 67 -7 5 -17 8 -23 7 -5 -1 -49 -4 -97 -7z m-495 -1095 c7 -17 -22 -31
-36 -17 -5 5 -6 14 -3 20 10 16 33 14 39 -3z m47 -51 c0 -8 -6 -15 -14 -15
-17 0 -28 14 -19 24 12 12 33 6 33 -9z m-25 -53 c10 -35 25 -43 25 -13 0 38
10 51 31 40 11 -5 24 -7 30 -3 6 3 22 1 35 -6 19 -11 27 -10 48 4 52 33 92 4
51 -38 -14 -14 -14 -18 1 -41 14 -21 14 -30 4 -55 -19 -45 -36 -56 -65 -40
-13 7 -32 9 -42 5 -17 -6 -16 -8 3 -15 31 -12 37 -37 13 -54 -16 -11 -27 -11
-50 -3 -25 10 -29 17 -29 49 0 41 -15 59 -23 28 -7 -26 -27 -26 -27 -1 0 11
-4 22 -9 25 -5 3 -12 23 -16 43 -4 21 -11 44 -17 50 -13 16 -1 66 15 61 7 -3
16 -19 22 -36z"/>
<path d="M9483 2301 c-50 -3 -94 -9 -97 -11 -6 -7 10 -308 23 -425 6 -49 15
-173 21 -275 6 -102 15 -248 20 -325 6 -77 14 -201 19 -276 4 -75 12 -142 16
-149 7 -12 81 -9 189 7 l39 6 -7 106 c-3 58 -11 162 -16 231 -6 69 -14 211
-20 315 -5 105 -14 235 -20 290 -5 55 -14 181 -20 280 -6 99 -14 191 -18 205
-9 29 -9 29 -129 21z m92 -743 c28 -12 28 -26 2 -42 -19 -12 -31 -3 -42 32 -7
25 2 28 40 10z m9 -127 c14 -27 12 -41 -5 -41 -14 0 -29 38 -23 54 8 22 11 20
28 -13z m-17 -343 c-3 -8 -6 -5 -6 6 -1 11 2 17 5 13 3 -3 4 -12 1 -19z"/>
<path d="M8688 2235 c-112 -31 -224 -126 -262 -225 -10 -25 -20 -79 -23 -121
-14 -191 79 -377 237 -475 44 -27 254 -114 276 -114 6 0 43 -16 82 -36 63 -31
73 -40 82 -72 5 -20 10 -46 10 -57 0 -86 -164 -133 -295 -84 -88 33 -108 55
-113 127 -2 34 -10 66 -17 72 -8 7 -49 8 -114 4 -117 -8 -119 -9 -107 -115 16
-157 146 -289 327 -329 33 -7 102 -11 175 -9 111 4 124 6 185 36 145 72 211
202 188 370 -13 92 -35 138 -93 190 -60 55 -141 97 -276 143 -126 43 -187 74
-233 118 -50 48 -67 90 -74 182 -5 71 -4 77 21 106 39 47 83 64 168 64 57 0
84 -5 118 -22 51 -26 70 -57 79 -132 l6 -51 70 2 c38 1 88 4 112 8 l43 6 0 68
c0 37 -7 87 -15 112 -36 104 -136 193 -259 230 -72 22 -225 24 -298 4z m25
-118 c-3 -5 -10 -4 -15 1 -6 6 -7 16 -3 22 6 9 9 9 16 -1 4 -7 5 -17 2 -22z"/>
<path d="M8072 2201 c-29 -4 -57 -12 -61 -19 -4 -6 -4 -45 0 -84 18 -173 42
-616 42 -758 -1 -201 -19 -284 -72 -341 -35 -36 -42 -39 -95 -39 -52 0 -60 3
-99 39 -60 55 -96 161 -117 341 -17 149 -40 472 -40 568 0 55 -3 133 -6 175
l-7 77 -108 0 c-93 0 -109 -2 -117 -17 -17 -36 32 -807 62 -963 28 -150 78
-260 160 -348 80 -87 206 -125 343 -104 131 21 204 78 264 207 22 46 39 91 39
101 0 11 7 51 15 89 17 81 19 320 4 490 -5 61 -12 169 -14 240 -3 72 -10 166
-15 210 -6 44 -11 94 -13 110 -2 29 -3 30 -57 31 -30 1 -79 -1 -108 -5z"/>
<path d="M6480 2081 c-41 -7 -40 4 -21 -256 6 -88 16 -227 22 -310 23 -333 29
-405 40 -530 6 -71 14 -178 17 -237 4 -58 10 -109 13 -113 4 -3 82 -1 175 5
93 5 180 10 194 10 24 1 23 2 -15 35 -22 19 -48 35 -58 35 -11 0 -32 14 -47
30 -15 17 -35 30 -44 30 -20 0 -21 -16 -1 -24 23 -8 19 -53 -5 -61 -28 -9 -40
2 -40 36 0 23 -4 29 -22 29 -37 1 -61 26 -62 64 -1 33 0 35 44 41 38 6 47 4
61 -14 10 -12 24 -21 33 -21 8 0 18 -5 22 -11 3 -6 18 -9 33 -6 20 4 32 -1 52
-25 22 -27 28 -29 46 -19 31 16 43 14 43 -7 0 -10 5 -23 12 -30 9 -9 8 -16 -5
-30 -38 -41 -26 -45 126 -38 78 4 184 12 236 18 l94 12 -6 104 c-3 57 -10 109
-16 115 -10 10 -153 3 -490 -24 -98 -7 -127 -7 -137 3 -8 8 -16 77 -23 183 -6
94 -15 208 -21 255 -12 101 -41 485 -47 620 -6 149 0 140 -91 139 -42 -1 -93
-4 -112 -8z m165 -929 c-8 -9 -35 20 -28 31 4 6 11 3 19 -8 8 -10 12 -21 9
-23z m392 -381 c-1 -56 -7 -57 -31 -6 -19 39 -15 55 14 55 16 0 18 -7 17 -49z"/>
<path d="M5755 2022 c-140 -49 -224 -153 -276 -339 -19 -67 -22 -104 -23 -258
0 -192 11 -278 58 -431 29 -97 45 -129 102 -210 142 -201 342 -257 544 -154
56 28 138 111 174 175 27 46 29 60 34 175 2 69 0 141 -5 160 l-9 35 -65 -3
c-35 -1 -85 -5 -110 -8 l-47 -6 -4 -111 c-5 -131 -16 -160 -77 -201 -86 -58
-196 -30 -256 65 -32 49 -39 68 -73 189 -25 90 -27 106 -27 316 0 148 4 226
11 235 6 8 17 31 24 52 36 112 197 130 297 34 40 -37 54 -78 62 -176 l6 -76
107 0 c66 1 112 5 119 12 13 13 -3 177 -23 248 -25 84 -96 172 -187 229 -97
61 -257 83 -356 48z m195 -117 c0 -8 -4 -15 -9 -15 -5 0 -11 7 -15 15 -3 9 0
15 9 15 8 0 15 -7 15 -15z m-413 -377 c-3 -8 -6 -5 -6 6 -1 11 2 17 5 13 3 -3
4 -12 1 -19z m37 -213 c-6 -16 -44 -21 -44 -7 0 14 12 22 31 22 12 0 16 -5 13
-15z m616 -525 c0 -5 -7 -10 -15 -10 -8 0 -15 5 -15 10 0 6 7 10 15 10 8 0 15
-4 15 -10z m-430 -20 c0 -5 -4 -10 -10 -10 -5 0 -10 5 -10 10 0 6 5 10 10 10
6 0 10 -4 10 -10z m347 -26 c9 -23 -13 -40 -32 -24 -8 7 -15 19 -15 26 0 19
39 18 47 -2z"/>
<path d="M5250 1988 c-41 -5 -80 -14 -86 -19 -7 -6 -24 -45 -38 -87 -93 -276
-113 -327 -128 -330 -12 -2 -31 25 -67 95 -27 54 -74 143 -103 198 l-53 100
-104 -2 c-57 -1 -108 -6 -114 -12 -7 -7 40 -111 161 -353 95 -189 172 -350
172 -358 0 -7 -15 -55 -34 -105 -18 -49 -59 -164 -90 -255 -31 -91 -61 -172
-65 -181 -5 -9 -15 -36 -21 -60 -7 -24 -19 -59 -27 -77 -24 -50 -12 -55 106
-43 57 6 107 13 111 16 5 3 12 20 16 37 3 18 10 39 15 48 10 20 31 77 69 191
37 111 57 146 73 130 6 -6 52 -93 103 -193 l92 -183 113 3 c63 1 118 7 123 12
10 10 -29 91 -240 500 -66 130 -94 192 -91 210 3 14 26 84 51 155 26 72 65
180 86 240 21 61 53 150 70 198 17 48 30 98 28 110 -4 26 -23 29 -128 15z
m-160 -545 c0 -3 -7 -15 -16 -25 -10 -10 -17 -35 -17 -58 0 -27 -4 -40 -13
-40 -8 0 -14 -7 -14 -16 0 -30 -42 -93 -62 -94 -12 0 -9 48 3 55 7 5 5 15 -6
31 -11 18 -14 37 -9 79 7 58 11 61 71 56 12 -1 24 3 28 9 7 11 35 14 35 3z
m-24 -246 c-3 -11 -1 -28 4 -38 21 -39 -22 -68 -50 -34 -7 8 -25 14 -41 12
-39 -3 -37 17 3 23 28 4 33 9 30 29 -2 20 0 22 13 11 14 -11 17 -10 22 8 3 12
10 19 15 16 5 -4 7 -15 4 -27z"/>
<path d="M4980 1340 c0 -6 7 -10 15 -10 8 0 15 2 15 4 0 2 -7 6 -15 10 -8 3
-15 1 -15 -4z"/>
<path d="M4140 1929 c-58 -4 -188 -13 -290 -19 -102 -7 -214 -15 -250 -18 -62
-7 -65 -8 -68 -36 -2 -16 3 -85 11 -155 8 -69 15 -177 17 -239 3 -169 16 -197
66 -147 18 18 34 25 53 23 23 -3 26 -7 26 -41 1 -27 -4 -39 -18 -43 -10 -3
-16 -11 -13 -17 3 -7 9 -20 12 -29 9 -24 34 -23 34 1 0 11 9 23 20 26 11 3 20
12 20 18 0 7 5 4 11 -5 5 -10 14 -18 19 -18 13 0 12 130 0 290 -9 107 -8 127
5 136 17 13 91 20 340 34 99 6 203 14 230 18 l50 7 -3 105 c-2 58 -6 108 -9
113 -5 8 -117 7 -263 -4z m-120 -88 c0 -24 -13 -33 -34 -25 -27 10 -20 44 9
44 18 0 25 -5 25 -19z m-216 -28 c3 -10 9 -24 12 -31 10 -21 -37 -11 -50 11
-8 14 -8 20 4 27 21 14 27 12 34 -7z m-74 -42 c0 -25 -12 -32 -61 -36 -46 -3
-56 -9 -43 -27 11 -15 12 -88 1 -88 -4 0 -13 0 -19 0 -9 0 -13 17 -13 52 0 29
-4 61 -9 71 -6 13 -5 16 8 11 9 -3 23 -1 30 5 11 9 19 9 34 0 24 -15 54 -5 46
16 -4 10 0 15 10 15 9 0 16 -8 16 -19z m-22 -86 c-3 -3 -13 -2 -22 1 -14 5
-15 9 -4 15 13 8 36 -6 26 -16z m-52 -170 c-12 -24 -24 -44 -27 -45 -3 0 -12
11 -19 25 -15 29 -3 51 33 58 12 2 25 5 28 6 3 0 -3 -19 -15 -44z m-71 -125
c3 -5 1 -10 -4 -10 -6 0 -11 5 -11 10 0 6 2 10 4 10 3 0 8 -4 11 -10z"/>
<path d="M3577 1244 c-3 -19 -3 -42 0 -50 7 -18 48 -15 47 4 -1 6 -2 28 -2 47
-2 27 -6 35 -21 35 -13 0 -20 -10 -24 -36z"/>
<path d="M3780 1205 c0 -3 5 -14 12 -25 11 -16 8 -23 -15 -48 -15 -15 -27 -35
-27 -44 0 -38 -68 -58 -107 -33 -12 8 -29 15 -38 15 -20 0 -19 17 1 28 14 8
14 10 -1 22 -8 7 -18 10 -22 7 -3 -4 0 -53 7 -109 6 -57 12 -141 11 -188 -1
-47 3 -101 9 -120 6 -19 11 -81 10 -137 0 -115 11 -157 38 -149 9 3 60 8 112
11 52 3 149 10 215 15 66 5 192 14 280 20 88 6 177 13 198 16 l37 6 -1 86 c-1
48 -4 98 -8 112 -7 25 -7 25 -117 22 -60 -2 -196 -9 -302 -17 -106 -8 -199
-12 -207 -9 -15 6 -21 40 -29 161 -3 48 -1 75 7 81 7 5 64 12 127 16 149 9
213 16 223 26 5 4 3 55 -4 114 l-12 106 -56 -1 c-31 0 -109 -4 -174 -7 -105
-6 -120 -5 -134 11 -15 16 -33 23 -33 12z m350 -93 c0 -11 -22 -32 -32 -32 -5
0 -4 9 2 20 11 20 30 28 30 12z m-247 -56 c7 -19 -18 -40 -38 -32 -15 6 -20
28 -8 39 12 12 41 7 46 -7z m-180 -50 c26 -8 11 -26 -23 -26 -32 0 -45 13 -36
36 4 10 10 12 23 5 10 -5 26 -12 36 -15z m-20 -73 c8 -7 -23 -32 -41 -33 -10
0 -10 5 -2 20 11 20 31 26 43 13z m48 -226 c-13 -13 -26 -3 -16 12 3 6 11 8
17 5 6 -4 6 -10 -1 -17z m-51 -66 c0 -18 -18 -41 -32 -41 -9 0 -11 32 -2 54 7
19 34 9 34 -13z m157 -53 c-3 -8 -6 -5 -6 6 -1 11 2 17 5 13 3 -3 4 -12 1 -19z
m143 4 c0 -13 -12 -22 -22 -16 -10 6 -1 24 13 24 5 0 9 -4 9 -8z m-170 -22
c24 -24 25 -33 4 -51 -12 -10 -20 -10 -35 -1 -10 7 -28 12 -39 12 -26 0 -26
16 0 23 11 3 20 12 20 21 0 22 26 20 50 -4z m300 -32 c0 -13 -23 -5 -28 10 -2
7 2 10 12 6 9 -3 16 -11 16 -16z"/>
</g>
</svg>
